<svg xmlns="http://www.w3.org/2000/svg" width="23.002" height="21.293" viewBox="0 0 23.002 21.293">
  <path id="Path_64" data-name="Path 64" d="M0,7.053A9.28,9.28,0,0,0,.081,8.274,9.611,9.611,0,0,0,.323,9.488a10.445,10.445,0,0,0,.4,1.207,11.824,11.824,0,0,0,.565,1.2q.323.6.713,1.189t.848,1.174q.457.583.982,1.159T4.951,16.56q.592.568,1.237,1.123t1.34,1.1q.7.542,1.444,1.07t1.548,1.043q.061.039.123.076t.126.072q.064.035.129.067t.132.063q.067.03.13.053t.122.038a1.017,1.017,0,0,0,.114.023.787.787,0,0,0,.107.008.779.779,0,0,0,.106-.008.988.988,0,0,0,.113-.023q.058-.015.12-.038t.127-.053l.129-.063.127-.067.125-.072.122-.076q.8-.515,1.553-1.043t1.447-1.07q.7-.542,1.341-1.1t1.235-1.123q.591-.568,1.115-1.144t.982-1.159q.457-.583.848-1.174t.715-1.189a11.8,11.8,0,0,0,.567-1.2,10.411,10.411,0,0,0,.405-1.207,9.571,9.571,0,0,0,.243-1.214A9.237,9.237,0,0,0,23,7.053q0-.388-.031-.759t-.094-.727q-.063-.355-.157-.694a6.956,6.956,0,0,0-.22-.662q-.126-.323-.276-.624T21.9,3.007q-.175-.279-.375-.537a6.473,6.473,0,0,0-.891-.94A6.22,6.22,0,0,0,19.583.8,6.446,6.446,0,0,0,19,.515,6.154,6.154,0,0,0,18.39.29a6.314,6.314,0,0,0-.639-.161,6.687,6.687,0,0,0-.664-.1Q16.748,0,16.4,0a6.9,6.9,0,0,0-.784.044,6.05,6.05,0,0,0-.74.131,5.533,5.533,0,0,0-.7.218,5.321,5.321,0,0,0-.652.3,6.271,6.271,0,0,0-.6.376,5.791,5.791,0,0,0-.537.431A5.571,5.571,0,0,0,11.5,2.533a5.624,5.624,0,0,0-.888-1.021,5.915,5.915,0,0,0-.537-.431A6.439,6.439,0,0,0,9.477.7,5.275,5.275,0,0,0,8.824.4a5.506,5.506,0,0,0-.7-.22A6.047,6.047,0,0,0,7.382.044,6.928,6.928,0,0,0,6.593,0Q6.241,0,5.9.032a6.688,6.688,0,0,0-.664.1A6.314,6.314,0,0,0,4.6.29a6.154,6.154,0,0,0-.613.225A6.446,6.446,0,0,0,3.406.8a6.22,6.22,0,0,0-1.048.73,6.443,6.443,0,0,0-.891.94,6.523,6.523,0,0,0-.373.537Q.92,3.286.77,3.588T.5,4.211q-.124.323-.217.662t-.155.694q-.062.355-.093.727T0,7.053Zm2.121,0a6.818,6.818,0,0,1,.037-.721,5.76,5.76,0,0,1,.111-.674,5.037,5.037,0,0,1,.186-.626,4.611,4.611,0,0,1,.26-.578,4.9,4.9,0,0,1,.324-.524,4.475,4.475,0,0,1,.378-.464,4.307,4.307,0,0,1,.431-.4,4.384,4.384,0,0,1,.485-.342,4.168,4.168,0,0,1,1.092-.468,4.461,4.461,0,0,1,.6-.117A5.007,5.007,0,0,1,6.653,2.1q.264,0,.509.023a4.509,4.509,0,0,1,.474.069,3.823,3.823,0,0,1,.438.116,3.356,3.356,0,0,1,.4.162q.192.092.37.2t.34.22Q9.35,3,9.5,3.126t.281.267q.133.139.257.278t.237.276q.114.138.217.275t.2.273q.058.088.112.162t.106.135q.052.061.1.108a.909.909,0,0,0,.094.08.732.732,0,0,0,.093.058.66.66,0,0,0,.1.042.643.643,0,0,0,.1.025.677.677,0,0,0,.107.008.663.663,0,0,0,.106-.008.6.6,0,0,0,.194-.067.646.646,0,0,0,.088-.058,1.014,1.014,0,0,0,.089-.08q.047-.047.1-.108t.108-.135q.056-.074.117-.162.1-.136.209-.273t.226-.274q.117-.137.244-.275T13.24,3.4q.135-.138.283-.265t.309-.243q.161-.116.336-.221t.362-.2a3.159,3.159,0,0,1,.395-.164,3.638,3.638,0,0,1,.432-.117,4.348,4.348,0,0,1,.47-.07q.245-.023.508-.023a5.086,5.086,0,0,1,.637.039,4.5,4.5,0,0,1,.6.117,4.2,4.2,0,0,1,.565.2,4.153,4.153,0,0,1,.53.273,4.384,4.384,0,0,1,.485.342,4.307,4.307,0,0,1,.431.4,4.475,4.475,0,0,1,.378.464,4.9,4.9,0,0,1,.324.524,4.611,4.611,0,0,1,.26.578,5.037,5.037,0,0,1,.186.626,5.76,5.76,0,0,1,.111.674,6.818,6.818,0,0,1,.037.721,6.565,6.565,0,0,1-.047.778,6.983,6.983,0,0,1-.14.784,7.706,7.706,0,0,1-.233.789q-.14.4-.326.794t-.406.794q-.22.4-.474.788t-.541.782q-.287.389-.609.776t-.665.765q-.344.378-.71.749t-.756.733q-.389.362-.8.717t-.834.7q-.422.342-.854.67t-.873.645q-.442.316-.893.619l-.077.048-.062.034a.4.4,0,0,1-.047.02.078.078,0,0,1-.064,0,.4.4,0,0,1-.047-.02l-.062-.034-.077-.048q-.454-.3-.9-.619t-.876-.645q-.432-.329-.854-.67t-.832-.7q-.411-.354-.8-.717T6.27,14.85q-.366-.37-.709-.749T4.9,13.337q-.321-.386-.609-.776t-.541-.782q-.254-.392-.474-.788T2.866,10.2Q2.68,9.8,2.54,9.4a7.706,7.706,0,0,1-.233-.789,6.983,6.983,0,0,1-.14-.784A6.564,6.564,0,0,1,2.121,7.053Z" fill="#fff"/>
</svg>
