<svg xmlns="http://www.w3.org/2000/svg" width="19.033" height="18.203" viewBox="0 0 19.033 18.203">
  <path id="Path_1" data-name="Path 1" d="M5.068,21.441a2.622,2.622,0,0,0,1.367-.366,2.728,2.728,0,0,0,.977-.986,2.676,2.676,0,0,0,.361-1.372,2.631,2.631,0,0,0-.361-1.357,2.779,2.779,0,0,0-.977-.986A2.6,2.6,0,0,0,5.068,16a2.571,2.571,0,0,0-1.362.371,2.875,2.875,0,0,0-.981.986,2.578,2.578,0,0,0-.371,1.357,2.621,2.621,0,0,0,.371,1.372,2.82,2.82,0,0,0,.981.986A2.6,2.6,0,0,0,5.068,21.441Zm0-6.387a2.6,2.6,0,0,0,1.367-.371,2.779,2.779,0,0,0,.977-.986,2.749,2.749,0,0,0,0-2.725,2.74,2.74,0,0,0-.977-.981,2.622,2.622,0,0,0-1.367-.366A2.666,2.666,0,0,0,3.706,10a2.847,2.847,0,0,0-.981.977,2.677,2.677,0,0,0,0,2.72,2.875,2.875,0,0,0,.981.986A2.571,2.571,0,0,0,5.068,15.055Zm0-6.387A2.6,2.6,0,0,0,6.436,8.3a2.779,2.779,0,0,0,.977-.986,2.613,2.613,0,0,0,.361-1.348A2.657,2.657,0,0,0,7.412,4.6a2.767,2.767,0,0,0-.977-.991,2.6,2.6,0,0,0-1.367-.371,2.571,2.571,0,0,0-1.362.371,2.861,2.861,0,0,0-.981.991,2.6,2.6,0,0,0-.371,1.362,2.561,2.561,0,0,0,.371,1.348,2.875,2.875,0,0,0,.981.986A2.571,2.571,0,0,0,5.068,8.668Zm6.8,12.773a2.648,2.648,0,0,0,1.372-.366,2.754,2.754,0,0,0,.986-.986,2.648,2.648,0,0,0,.366-1.372,2.6,2.6,0,0,0-.366-1.357,2.806,2.806,0,0,0-.986-.986A2.621,2.621,0,0,0,11.865,16a2.586,2.586,0,0,0-1.353.371,2.847,2.847,0,0,0-.991.986,2.578,2.578,0,0,0-.371,1.357,2.621,2.621,0,0,0,.371,1.372,2.794,2.794,0,0,0,.991.986A2.612,2.612,0,0,0,11.865,21.441Zm0-6.387a2.621,2.621,0,0,0,1.372-.371,2.806,2.806,0,0,0,.986-.986,2.717,2.717,0,0,0,0-2.725,2.767,2.767,0,0,0-.986-.981,2.648,2.648,0,0,0-1.372-.366A2.685,2.685,0,0,0,10.513,10a2.82,2.82,0,0,0-.991.977,2.677,2.677,0,0,0,0,2.72,2.847,2.847,0,0,0,.991.986A2.586,2.586,0,0,0,11.865,15.055Zm0-6.377a2.621,2.621,0,0,0,1.372-.371,2.794,2.794,0,0,0,.986-.991,2.735,2.735,0,0,0,0-2.734,2.715,2.715,0,0,0-.986-.981,2.676,2.676,0,0,0-1.372-.361,2.713,2.713,0,0,0-1.353.371,2.767,2.767,0,0,0-.991.977,2.7,2.7,0,0,0,0,2.729,2.834,2.834,0,0,0,.991.991A2.586,2.586,0,0,0,11.865,8.678Zm6.816,12.764a2.587,2.587,0,0,0,1.348-.366,2.806,2.806,0,0,0,.986-.986,2.621,2.621,0,0,0,.371-1.372,2.578,2.578,0,0,0-.371-1.357,2.861,2.861,0,0,0-.986-.986A2.561,2.561,0,0,0,18.682,16a2.621,2.621,0,0,0-1.372.371,2.766,2.766,0,0,0-.981.986,2.631,2.631,0,0,0-.361,1.357,2.676,2.676,0,0,0,.361,1.372,2.715,2.715,0,0,0,.981.986A2.648,2.648,0,0,0,18.682,21.441Zm0-6.387a2.561,2.561,0,0,0,1.348-.371,2.861,2.861,0,0,0,.986-.986,2.686,2.686,0,0,0,0-2.725,2.82,2.82,0,0,0-.986-.981,2.587,2.587,0,0,0-1.348-.366,2.753,2.753,0,0,0-2.354,1.353,2.74,2.74,0,0,0,0,2.72,2.766,2.766,0,0,0,.981.986A2.621,2.621,0,0,0,18.682,15.055Zm0-6.377a2.561,2.561,0,0,0,1.348-.371,2.847,2.847,0,0,0,.986-.991,2.7,2.7,0,0,0,0-2.734,2.766,2.766,0,0,0-.986-.981,2.613,2.613,0,0,0-1.348-.361,2.749,2.749,0,0,0-1.372.371,2.689,2.689,0,0,0-.981.977,2.758,2.758,0,0,0,0,2.729,2.754,2.754,0,0,0,.981.991A2.621,2.621,0,0,0,18.682,8.678Z" transform="translate(-2.354 -3.238)" fill="#fff"/>
</svg>
