<svg xmlns="http://www.w3.org/2000/svg" width="18.994" height="18.682" viewBox="0 0 18.994 18.682">
  <path id="Path_29" data-name="Path 29" d="M1.65,12a9.215,9.215,0,0,0,.737,3.672A9.6,9.6,0,0,0,4.4,18.678q.215.215.391-.02l.43-.479a.266.266,0,0,0-.01-.391,8.468,8.468,0,0,1-1.724-2.612A8.2,8.2,0,0,1,3.5,8.8,8.4,8.4,0,0,1,5.3,6.158,8.5,8.5,0,0,1,7.949,4.366a8.224,8.224,0,0,1,6.406,0,8.5,8.5,0,0,1,2.651,1.792A8.328,8.328,0,0,1,18.8,8.8a8.255,8.255,0,0,1,.01,6.372,8.31,8.31,0,0,1-1.729,2.612.266.266,0,0,0-.01.391l.42.479a.244.244,0,0,0,.41.02,9.546,9.546,0,0,0,2.007-3,9.524,9.524,0,0,0,0-7.349,9.65,9.65,0,0,0-5.073-5.078,9.186,9.186,0,0,0-3.682-.742,9.211,9.211,0,0,0-3.691.742A9.593,9.593,0,0,0,4.438,5.3,9.693,9.693,0,0,0,2.393,8.326,9.162,9.162,0,0,0,1.65,12Zm2.7,0a6.619,6.619,0,0,0,.488,2.544,6.793,6.793,0,0,0,1.357,2.1.23.23,0,0,0,.4,0l.43-.469Q7.2,16,7,15.777a5.739,5.739,0,0,1-1.06-1.719A5.508,5.508,0,0,1,5.557,12,5.428,5.428,0,0,1,5.991,9.84,5.641,5.641,0,0,1,7.2,8.053,5.709,5.709,0,0,1,8.984,6.842a5.567,5.567,0,0,1,4.336,0,5.709,5.709,0,0,1,1.787,1.211A5.641,5.641,0,0,1,16.313,9.84,5.428,5.428,0,0,1,16.748,12a5.508,5.508,0,0,1-.386,2.061,5.422,5.422,0,0,1-1.079,1.709.267.267,0,0,0-.01.4l.439.479a.235.235,0,0,0,.4,0,6.96,6.96,0,0,0,1.353-2.1,6.778,6.778,0,0,0-.039-5.171A7.026,7.026,0,0,0,15.962,7.2a6.811,6.811,0,0,0-2.168-1.475,6.822,6.822,0,0,0-5.283,0A6.92,6.92,0,0,0,4.873,9.371,6.6,6.6,0,0,0,4.346,12Zm.771,8.408a.446.446,0,0,0-.107.5.425.425,0,0,0,.439.278H16.836a.426.426,0,0,0,.435-.278.439.439,0,0,0-.1-.5l-5.625-6.357a.525.525,0,0,0-.8,0ZM7.031,12a4.023,4.023,0,0,0,.938,2.607q.186.234.391,0l.449-.449a.288.288,0,0,0,.029-.4,2.929,2.929,0,0,1-.439-.82A2.833,2.833,0,0,1,8.242,12a2.766,2.766,0,0,1,.4-1.45A3.057,3.057,0,0,1,9.7,9.488a2.835,2.835,0,0,1,2.905,0,3.113,3.113,0,0,1,1.06,1.06,2.74,2.74,0,0,1,.4,1.45,2.833,2.833,0,0,1-.156.938,2.788,2.788,0,0,1-.439.811.306.306,0,0,0,.02.41l.439.449q.225.244.4,0a4.1,4.1,0,0,0,.7-1.2,4.075,4.075,0,0,0-.312-3.467,4.306,4.306,0,0,0-1.494-1.5,4.088,4.088,0,0,0-4.136,0,4.252,4.252,0,0,0-1.494,1.5A3.962,3.962,0,0,0,7.031,12Z" transform="translate(-1.65 -2.506)" fill="#fff"/>
</svg>
