<svg xmlns="http://www.w3.org/2000/svg" width="18.534" height="18.93" viewBox="0 0 18.534 18.93">
  <path id="Path_13" data-name="Path 13" d="M14.023,10.885a1.958,1.958,0,0,1-.41-.366q-.166-.2-.244-.278l-.273-.234a2.16,2.16,0,0,1-.371-.42l-8.291,8.76.859.84Zm.166-6.641a4.164,4.164,0,0,1,1.743-1.118,3.3,3.3,0,0,1,1.855-.044,3.861,3.861,0,0,1,1.724,1.035,3.8,3.8,0,0,1,1.035,1.714,3.294,3.294,0,0,1-.049,1.86A4.172,4.172,0,0,1,19.385,9.43ZM15.8,11.188,6.055,20.23a.988.988,0,0,1-.664.283.952.952,0,0,1-.7-.322L3.145,21.4a.428.428,0,0,1-.312.1.463.463,0,0,1-.293-.142l-.264-.273a.4.4,0,0,1-.151-.3.452.452,0,0,1,.093-.3l1.2-1.543a1,1,0,0,1-.308-.718,1.024,1.024,0,0,1,.278-.659l9.063-9.746ZM13.232,5.2l5.176,5.205a4.412,4.412,0,0,1-1.758,1.123,3.285,3.285,0,0,1-1.865.063,3.634,3.634,0,0,1-1.709-1.05A3.962,3.962,0,0,1,12.051,8.81,3.259,3.259,0,0,1,12.1,6.959,4.319,4.319,0,0,1,13.232,5.2Zm-.811,8.428.107,1.924v5.459a.857.857,0,0,1-.259.63.92.92,0,0,1-1.279,0,.857.857,0,0,1-.259-.63V15.553l.059-.7Z" transform="translate(-2.124 -2.97)" fill="#fff"/>
</svg>
