<svg xmlns="http://www.w3.org/2000/svg" width="23.995" height="23.637" viewBox="0 0 23.995 23.637">
  <path id="Path_4" data-name="Path 4" d="M26.348,8.587V4.2a.952.952,0,0,0-1.174-.964l-6.033,1.31Q17.93,4.816,17.93,5.83l.025,12.992a.8.8,0,0,1-.668.977l-1.879.4a4.918,4.918,0,0,0-2.645,1.261,3.139,3.139,0,0,0-.865,2.262,2.918,2.918,0,0,0,.952,2.256,3.483,3.483,0,0,0,2.448.872,4.485,4.485,0,0,0,2.88-1.106,4.271,4.271,0,0,0,1.082-1.471,5.113,5.113,0,0,0,.414-2.157V11.417a1.009,1.009,0,0,1,.111-.581.937.937,0,0,1,.507-.223L25.656,9.44a.886.886,0,0,0,.507-.3A.846.846,0,0,0,26.348,8.587ZM3.182,17.45H13.591a.816.816,0,0,0,0-1.632H3.182a.8.8,0,0,0-.587.241.813.813,0,0,0,0,1.156A.81.81,0,0,0,3.182,17.45Zm0-4.166H13.591a.8.8,0,0,0,.816-.816.779.779,0,0,0-.241-.581.8.8,0,0,0-.575-.235H3.182a.81.81,0,0,0-.587.235.821.821,0,0,0,0,1.162A.81.81,0,0,0,3.182,13.284Zm0-4.154H13.591a.823.823,0,0,0,.816-.816.805.805,0,0,0-.241-.581.775.775,0,0,0-.575-.247H3.182a.789.789,0,0,0-.587.247.805.805,0,0,0-.241.581.785.785,0,0,0,.241.575A.8.8,0,0,0,3.182,9.131Z" transform="translate(-2.354 -3.208)" fill="#fff"/>
</svg>
