<svg xmlns="http://www.w3.org/2000/svg" width="18.955" height="18.673" viewBox="0 0 18.955 18.673">
  <path id="Path_11" data-name="Path 11" d="M21.309,7.457V3.99a.752.752,0,0,0-.928-.762L15.615,4.264q-.957.215-.957,1.016l.02,10.264a.632.632,0,0,1-.527.771l-1.484.313a3.885,3.885,0,0,0-2.09,1,2.479,2.479,0,0,0-.684,1.787,2.306,2.306,0,0,0,.752,1.782,2.752,2.752,0,0,0,1.934.688,3.543,3.543,0,0,0,2.275-.874,3.374,3.374,0,0,0,.854-1.162,4.039,4.039,0,0,0,.327-1.7V9.693a.8.8,0,0,1,.088-.459.74.74,0,0,1,.4-.176l4.238-.928a.7.7,0,0,0,.4-.239A.668.668,0,0,0,21.309,7.457Zm-18.3,7H11.23a.645.645,0,0,0,0-1.289H3.008a.631.631,0,0,0-.464.19.642.642,0,0,0,0,.913A.64.64,0,0,0,3.008,14.459Zm0-3.291H11.23a.634.634,0,0,0,.645-.645.615.615,0,0,0-.19-.459.628.628,0,0,0-.454-.186H3.008a.64.64,0,0,0-.464.186.648.648,0,0,0,0,.918A.64.64,0,0,0,3.008,11.168Zm0-3.281H11.23a.65.65,0,0,0,.645-.645.636.636,0,0,0-.19-.459.612.612,0,0,0-.454-.2H3.008a.623.623,0,0,0-.464.2.636.636,0,0,0-.19.459.62.62,0,0,0,.19.454A.631.631,0,0,0,3.008,7.887Z" transform="translate(-2.354 -3.208)" fill="#fff"/>
</svg>
