<svg xmlns="http://www.w3.org/2000/svg" width="18.984" height="18.984" viewBox="0 0 18.984 18.984">
  <path id="Path_7" data-name="Path 7" d="M11.143,21.822a9.111,9.111,0,0,0,3.672-.747A9.726,9.726,0,0,0,19.893,16a9.43,9.43,0,0,0,0-7.334A9.731,9.731,0,0,0,14.8,3.58a9.406,9.406,0,0,0-7.324,0A9.731,9.731,0,0,0,2.393,8.663,9.4,9.4,0,0,0,2.4,16,9.758,9.758,0,0,0,7.48,21.075,9.087,9.087,0,0,0,11.143,21.822Zm0-1.748a7.577,7.577,0,0,1-3.008-.6,7.725,7.725,0,0,1-4.121-4.126,7.916,7.916,0,0,1,0-6.025A7.755,7.755,0,0,1,8.13,5.187a7.542,7.542,0,0,1,3-.6,7.591,7.591,0,0,1,3.022.6,7.8,7.8,0,0,1,4.131,4.136,7.577,7.577,0,0,1,.6,3.008,7.432,7.432,0,0,1-.6,3.018,7.873,7.873,0,0,1-1.66,2.466,7.707,7.707,0,0,1-2.461,1.66A7.626,7.626,0,0,1,11.143,20.074ZM14.7,12.848a.578.578,0,0,0,0-1.006L9.414,8.717a.7.7,0,0,0-.625-.054.457.457,0,0,0-.312.464v6.436a.468.468,0,0,0,.308.464.658.658,0,0,0,.63-.063Z" transform="translate(-1.65 -2.838)" fill="#fff"/>
</svg>
