<svg xmlns="http://www.w3.org/2000/svg" xmlns:xlink="http://www.w3.org/1999/xlink" width="66.188" height="66.188" viewBox="0 0 66.188 66.188">
  <defs>
    <filter id="Path_3" x="0" y="0" width="66.188" height="66.188" filterUnits="userSpaceOnUse">
      <feOffset dy="3" input="SourceAlpha"/>
      <feGaussianBlur stdDeviation="3" result="blur"/>
      <feFlood flood-opacity="0.161"/>
      <feComposite operator="in" in2="blur"/>
      <feComposite in="SourceGraphic"/>
    </filter>
  </defs>
  <g transform="matrix(1, 0, 0, 1, 0, 0)" filter="url(#Path_3)">
    <path id="Path_3-2" data-name="Path 3" d="M25.744,51.026a23.126,23.126,0,0,0,9.32-1.9,24.689,24.689,0,0,0,12.89-12.89,23.168,23.168,0,0,0,1.884-9.308,23.168,23.168,0,0,0-1.884-9.308A24.7,24.7,0,0,0,35.04,4.722a23.257,23.257,0,0,0-9.32-1.884,23.135,23.135,0,0,0-9.271,1.884,24.7,24.7,0,0,0-12.915,12.9A23.169,23.169,0,0,0,1.65,26.932a23.038,23.038,0,0,0,1.9,9.308,24.77,24.77,0,0,0,12.9,12.89A23.065,23.065,0,0,0,25.744,51.026Zm0-4.437a19.233,19.233,0,0,1-7.635-1.524A19.608,19.608,0,0,1,7.649,34.592a19.432,19.432,0,0,1-1.512-7.66A19.369,19.369,0,0,1,7.649,19.3,19.686,19.686,0,0,1,18.1,8.8,19.144,19.144,0,0,1,25.72,7.275,19.268,19.268,0,0,1,33.392,8.8,19.809,19.809,0,0,1,43.877,19.3,19.233,19.233,0,0,1,45.4,26.932a18.865,18.865,0,0,1-1.512,7.66,19.984,19.984,0,0,1-4.214,6.259,19.562,19.562,0,0,1-6.247,4.214A19.358,19.358,0,0,1,25.744,46.589Zm9.023-18.343a1.468,1.468,0,0,0,0-2.553L21.357,17.76a1.776,1.776,0,0,0-1.586-.136,1.161,1.161,0,0,0-.793,1.177V35.137a1.188,1.188,0,0,0,.781,1.177,1.671,1.671,0,0,0,1.6-.161Z" transform="translate(7.35 3.16)" fill="#fff"/>
  </g>
</svg>
