<svg xmlns="http://www.w3.org/2000/svg" width="23.311" height="18.76" viewBox="0 0 23.311 18.76">
  <path id="Path_12" data-name="Path 12" d="M9.326,21.715h9.365a.76.76,0,0,0,.557-.234.8.8,0,0,0,0-1.133.76.76,0,0,0-.557-.234H9.326a.76.76,0,0,0-.557.234.8.8,0,0,0,0,1.133A.76.76,0,0,0,9.326,21.715Zm-4.5-3.193H23.193a2.54,2.54,0,0,0,1.846-.61,2.494,2.494,0,0,0,.625-1.86V5.426a2.494,2.494,0,0,0-.625-1.86,2.54,2.54,0,0,0-1.846-.61H4.824a2.54,2.54,0,0,0-1.846.61,2.494,2.494,0,0,0-.625,1.86V16.051a2.494,2.494,0,0,0,.625,1.86A2.54,2.54,0,0,0,4.824,18.521Zm.078-1.65a.946.946,0,0,1-.679-.205.929.929,0,0,1-.21-.684V5.494a.929.929,0,0,1,.21-.684A.946.946,0,0,1,4.9,4.605H23.115a.946.946,0,0,1,.679.205.929.929,0,0,1,.21.684V15.982a.929.929,0,0,1-.21.684.946.946,0,0,1-.679.205ZM16.768,8.932a.954.954,0,0,0,.469-.21.815.815,0,0,0,.127-.542V6.363a.484.484,0,0,0-.132-.386q-.132-.112-.5-.015l-2.705.674a.8.8,0,0,0-.449.215.98.98,0,0,0-.107.557V11.5a.737.737,0,0,1-.073.4.85.85,0,0,1-.425.2l-.84.225a2.561,2.561,0,0,0-1.1.552,1.357,1.357,0,0,0-.454,1.079,1.266,1.266,0,0,0,.415.977,1.59,1.59,0,0,0,1.118.381,2.15,2.15,0,0,0,1.616-.64,2.266,2.266,0,0,0,.62-1.646V9.918a.678.678,0,0,1,.059-.342.3.3,0,0,1,.205-.117Z" transform="translate(-2.354 -2.955)" fill="#fff"/>
</svg>
