<svg xmlns="http://www.w3.org/2000/svg" xmlns:xlink="http://www.w3.org/1999/xlink" width="107.182" height="54.113" viewBox="0 0 107.182 54.113">
  <defs>
    <linearGradient id="linear-gradient" x1="-4.343" y1="-11.884" x2="-3.343" y2="-11.884" gradientUnits="objectBoundingBox">
      <stop offset="0" stop-color="#bb2026"/>
      <stop offset="1" stop-color="#e8362c"/>
    </linearGradient>
    <linearGradient id="linear-gradient-2" x1="0" y1="0.5" x2="1" y2="0.5" xlink:href="#linear-gradient"/>
  </defs>
  <g id="Radiojan" transform="translate(-622.439 -2007.995)">
    <g id="Group_12" data-name="Group 12" transform="translate(622.439 2007.995)">
      <circle id="Ellipse_14" data-name="Ellipse 14" cx="19.132" cy="19.132" r="19.132" transform="translate(53.068 27.057) rotate(-45)" fill="url(#linear-gradient)"/>
      <path id="Path_32" data-name="Path 32" d="M626.271,2218h-3.832v-13.041h5.793c3.479,0,5.269,1.636,5.269,4.428a3.976,3.976,0,0,1-2.106,3.669l2.476,4.943h-4.284l-2.06-4.374h-1.256Zm0-6.9h1.582a1.582,1.582,0,0,0,1.735-1.645,1.621,1.621,0,0,0-1.726-1.663h-1.591Z" transform="translate(-622.439 -2184.299)" fill="#fff"/>
      <path id="Path_33" data-name="Path 33" d="M745.159,2215.4h-3.976L740.5,2218h-3.9l4.256-13.041h4.808L749.922,2218h-4.085Zm-3.28-2.7h2.585l-1.256-4.736h-.072Z" transform="translate(-724.628 -2184.299)" fill="#fff"/>
      <path id="Path_34" data-name="Path 34" d="M880.377,2204.955c3.958,0,6.281,2.25,6.281,6.425s-2.332,6.615-6.281,6.615H874.8v-13.041Zm-1.744,9.995h1.2c1.916,0,2.919-1.166,2.919-3.57,0-2.2-1.084-3.38-2.919-3.38h-1.2Z" transform="translate(-848.335 -2184.299)" fill="#fff"/>
      <path id="Path_35" data-name="Path 35" d="M1002.059,2218v-13.041h3.832V2218Z" transform="translate(-962.246 -2184.299)" fill="#e50e16"/>
      <path id="Path_36" data-name="Path 36" d="M1065.947,2209.552c0,4.166-2.539,6.742-6.57,6.742s-6.57-2.576-6.57-6.742,2.539-6.751,6.57-6.751S1065.947,2205.386,1065.947,2209.552Zm-9.236,0c0,2.25,1.057,3.687,2.666,3.687s2.666-1.437,2.666-3.687-1.067-3.7-2.666-3.7S1056.711,2207.292,1056.711,2209.552Z" transform="translate(-1007.672 -2182.371)" fill="#fff"/>
      <g id="Group_7" data-name="Group 7" transform="translate(0 36.475)">
        <path id="Path_37" data-name="Path 37" d="M622.439,2362.586v-5.577h3.653v.962h-2.485v1.5h2.269v.924h-2.269v2.2Z" transform="translate(-622.439 -2356.882)" fill="#fff"/>
        <path id="Path_38" data-name="Path 38" d="M669.732,2362.586h-1.04v-3.765h-.031l-1.515,3.711h-.734l-1.515-3.711h-.031v3.765h-1.04v-5.577h1.353l1.585,3.954h.031l1.585-3.954h1.353Z" transform="translate(-659.486 -2356.882)" fill="#fff"/>
        <path id="Path_39" data-name="Path 39" d="M745.5,2358.08h-.023l-1.422.982v-1.051l1.442-1h1.159v5.577H745.5Z" transform="translate(-731.302 -2356.882)" fill="#fff"/>
        <path id="Path_40" data-name="Path 40" d="M780.063,2358.7c0-1.8.862-2.906,2.257-2.906s2.253,1.1,2.253,2.9-.85,2.926-2.253,2.926S780.063,2360.5,780.063,2358.7Zm3.324,0c0-1.26-.406-1.971-1.067-1.971s-1.071.715-1.071,1.971.406,1.987,1.071,1.987S783.387,2359.971,783.387,2358.7Z" transform="translate(-763.532 -2355.793)" fill="#fff"/>
        <path id="Path_41" data-name="Path 41" d="M830.036,2357.96v-.023H827.2v-.927h3.989v.939l-2.327,4.638h-1.225Z" transform="translate(-805.725 -2356.882)" fill="#fff"/>
        <path id="Path_42" data-name="Path 42" d="M864.679,2399.386a.622.622,0,1,1,.622.622A.617.617,0,0,1,864.679,2399.386Z" transform="translate(-839.274 -2394.257)" fill="#fff"/>
        <path id="Path_43" data-name="Path 43" d="M885.022,2360.99H886.1a.968.968,0,0,0,1.024.8,1.042,1.042,0,0,0,.008-2.083,1.115,1.115,0,0,0-.978.514h-1.044l.274-3.208h3.548v.927H886.3l-.128,1.527h.023a1.4,1.4,0,0,1,1.241-.611,1.787,1.787,0,0,1,1.832,1.871,1.971,1.971,0,0,1-2.153,1.987A1.892,1.892,0,0,1,885.022,2360.99Z" transform="translate(-857.484 -2356.882)" fill="#fff"/>
        <path id="Path_44" data-name="Path 44" d="M966.469,2363.719v-6.71h1.055v6.71Z" transform="translate(-930.389 -2356.882)" fill="#fff"/>
        <path id="Path_45" data-name="Path 45" d="M1023.145,2362.586v-2.35h-2.512v2.35h-1.167v-5.577h1.167v2.265h2.512v-2.265h1.167v5.577Z" transform="translate(-977.827 -2356.882)" fill="#fff"/>
        <path id="Path_46" data-name="Path 46" d="M1076.673,2357.009a2.473,2.473,0,0,1,2.659,2.767,2.506,2.506,0,0,1-2.659,2.81h-2.149v-5.577Zm-.982,4.611h.843c1.044,0,1.608-.634,1.608-1.84,0-1.167-.58-1.809-1.608-1.809h-.843Z" transform="translate(-1027.112 -2356.882)" fill="#fff"/>
        <path id="Path_47" data-name="Path 47" d="M1128.29,2355.829c1.175,0,1.983.68,1.983,1.612a2.713,2.713,0,0,1-1.078,1.828l-1.36,1.31v.023h2.516v.927H1126.3v-.784l2.1-2.025c.564-.564.738-.846.738-1.233a.806.806,0,0,0-.885-.75.891.891,0,0,0-.939.893v.02h-1.082v-.02A1.859,1.859,0,0,1,1128.29,2355.829Z" transform="translate(-1073.395 -2355.825)" fill="#fff"/>
      </g>
      <circle id="Ellipse_15" data-name="Ellipse 15" cx="17.7" cy="17.7" r="17.7" transform="translate(55.094 27.057) rotate(-45)" fill="url(#linear-gradient-2)"/>
      <g id="Group_8" data-name="Group 8" transform="translate(66.521 20.43)">
        <path id="Path_48" data-name="Path 48" d="M1261.935,2215.49c0,2.061-1.5,3.262-4.076,3.262-.37,0-.913-.027-1.13-.054v-2.584a2.879,2.879,0,0,0,.425.027c.75,0,1.075-.244,1.075-.813V2202.8h3.705Z" transform="translate(-1256.73 -2202.801)" fill="#4d201a"/>
        <path id="Path_49" data-name="Path 49" d="M1316.527,2230.34c0-1.943,1.491-3,4.2-3.163l2.241-.136v-.515c0-.7-.524-1.075-1.256-1.075a1.231,1.231,0,0,0-1.356.958h-3.307c.09-2.151,1.925-3.524,4.862-3.524,2.8,0,4.672,1.4,4.672,3.461v6.949h-3.615v-1.374h-.072a3.317,3.317,0,0,1-2.946,1.518A3.214,3.214,0,0,1,1316.527,2230.34Zm6.443-.642v-.669l-1.636.117c-.741.054-1.157.4-1.157.913,0,.56.461.895,1.148.895C1322.184,2230.954,1322.97,2230.466,1322.97,2229.7Z" transform="translate(-1310.256 -2220.778)" fill="#4d201a"/>
        <path id="Path_50" data-name="Path 50" d="M1426.208,2223.6h3.615v1.988h.072a3.087,3.087,0,0,1,3.118-2.187c2.277,0,3.534,1.419,3.534,3.85v6.507h-3.705v-5.684c0-1.039-.488-1.681-1.455-1.681a1.5,1.5,0,0,0-1.473,1.681v5.684h-3.705Z" transform="translate(-1408.434 -2221.24)" fill="#4d201a"/>
      </g>
      <g id="Group_9" data-name="Group 9" transform="translate(85.181 34.158)">
        <path id="Path_51" data-name="Path 51" d="M1435.308,2336.152a.651.651,0,1,0,1.3,0v-1.944h.65v2.009a1.311,1.311,0,0,1-2.6,0v-2.009h.65Z" transform="translate(-1434.658 -2334.154)" fill="#4d201a"/>
        <path id="Path_52" data-name="Path 52" d="M1463.943,2335.971c.03.256.3.424.642.424s.583-.166.583-.394c0-.2-.149-.314-.523-.4l-.4-.088c-.573-.123-.855-.413-.855-.868,0-.573.5-.951,1.188-.951.723,0,1.178.372,1.188.934h-.609c-.022-.263-.252-.422-.577-.422s-.536.153-.536.383c0,.192.151.3.508.381l.377.08c.622.134.894.4.894.874,0,.6-.489.984-1.26.984-.747,0-1.223-.355-1.242-.938Z" transform="translate(-1460.311 -2333.695)" fill="#4d201a"/>
        <path id="Path_53" data-name="Path 53" d="M1490.479,2336.561h-1.091l-.237.753h-.667l1.078-3.107h.764l1.081,3.107h-.691Zm-.951-.487h.812l-.4-1.272h-.015Z" transform="translate(-1482.838 -2334.154)" fill="#4d201a"/>
      </g>
      <g id="Group_10" data-name="Group 10" transform="translate(66.46 20.071)">
        <path id="Path_54" data-name="Path 54" d="M1261.355,2212.063c0,2.061-1.5,3.262-4.076,3.262-.37,0-.913-.027-1.13-.054v-2.585a2.88,2.88,0,0,0,.425.027c.75,0,1.075-.244,1.075-.813v-12.526h3.705Z" transform="translate(-1256.15 -2199.374)" fill="#fff"/>
        <path id="Path_55" data-name="Path 55" d="M1315.948,2226.913c0-1.943,1.491-3,4.2-3.163l2.241-.136v-.515c0-.7-.524-1.075-1.256-1.075a1.231,1.231,0,0,0-1.356.958h-3.307c.09-2.151,1.925-3.524,4.862-3.524,2.8,0,4.672,1.4,4.672,3.461v6.95h-3.615v-1.374h-.072a3.318,3.318,0,0,1-2.946,1.518A3.214,3.214,0,0,1,1315.948,2226.913Zm6.443-.642v-.669l-1.636.117c-.741.054-1.157.4-1.157.913,0,.56.461.895,1.148.895C1321.605,2227.527,1322.391,2227.039,1322.391,2226.271Z" transform="translate(-1309.677 -2217.351)" fill="#fff"/>
        <path id="Path_56" data-name="Path 56" d="M1425.629,2220.173h3.615v1.988h.072a3.086,3.086,0,0,1,3.118-2.187c2.277,0,3.534,1.419,3.534,3.85v6.507h-3.705v-5.685c0-1.039-.488-1.681-1.455-1.681a1.5,1.5,0,0,0-1.473,1.681v5.685h-3.705Z" transform="translate(-1407.855 -2217.814)" fill="#fff"/>
      </g>
      <g id="Group_11" data-name="Group 11" transform="translate(85.12 33.798)">
        <path id="Path_57" data-name="Path 57" d="M1434.728,2332.725a.651.651,0,1,0,1.3,0v-1.944h.65v2.009a1.311,1.311,0,0,1-2.6,0v-2.009h.65Z" transform="translate(-1434.078 -2330.727)" fill="#fff"/>
        <path id="Path_58" data-name="Path 58" d="M1463.364,2332.545c.03.256.3.424.642.424s.583-.166.583-.394c0-.2-.149-.314-.523-.4l-.4-.088c-.573-.123-.855-.413-.855-.867,0-.573.5-.952,1.189-.952.723,0,1.177.372,1.188.934h-.609c-.021-.263-.252-.422-.577-.422s-.536.153-.536.383c0,.192.151.3.508.381l.377.08c.622.134.893.4.893.874,0,.6-.489.984-1.259.984-.747,0-1.223-.355-1.242-.939Z" transform="translate(-1459.732 -2330.269)" fill="#fff"/>
        <path id="Path_59" data-name="Path 59" d="M1489.9,2333.134h-1.092l-.237.753h-.667l1.079-3.107h.764l1.081,3.107h-.691Zm-.952-.487h.812l-.4-1.272h-.015Z" transform="translate(-1482.258 -2330.727)" fill="#fff"/>
      </g>
    </g>
  </g>
</svg>
