<svg xmlns="http://www.w3.org/2000/svg" width="26.9" height="32.153" viewBox="0 0 26.9 32.153">
  <path id="Path_5" data-name="Path 5" d="M13.034,31.778H25.5a3.82,3.82,0,0,0,2.806-.946,3.783,3.783,0,0,0,.952-2.8V16.277a3.739,3.739,0,0,0-.952-2.788,3.851,3.851,0,0,0-2.806-.933H22.677v2.126H25.4a1.778,1.778,0,0,1,1.292.439,1.758,1.758,0,0,1,.451,1.317V27.884a1.758,1.758,0,0,1-.451,1.317,1.778,1.778,0,0,1-1.292.439H13.121a1.782,1.782,0,0,1-1.286-.439,1.744,1.744,0,0,1-.457-1.317V25.227H9.264v2.806a3.8,3.8,0,0,0,.946,2.8A3.835,3.835,0,0,0,13.034,31.778ZM6.124,26.24H19.561a3.85,3.85,0,0,0,2.825-.94,3.776,3.776,0,0,0,.946-2.794V10.936a3.758,3.758,0,0,0-.946-2.781,3.85,3.85,0,0,0-2.825-.94h-3.2V9.329h3.115a1.782,1.782,0,0,1,1.286.439,1.762,1.762,0,0,1,.457,1.329V22.359a1.726,1.726,0,0,1-.457,1.3,1.782,1.782,0,0,1-1.286.439H6.21a1.759,1.759,0,0,1-1.279-.439,1.74,1.74,0,0,1-.451-1.3V11.1a1.776,1.776,0,0,1,.451-1.329A1.759,1.759,0,0,1,6.21,9.329H9.338V7.215H6.124a3.87,3.87,0,0,0-2.819.933,3.739,3.739,0,0,0-.952,2.788V22.507A3.761,3.761,0,0,0,3.305,25.3,3.854,3.854,0,0,0,6.124,26.24Zm6.725-9.259a1.024,1.024,0,0,0,1.014-1V4.1l-.074-1.731.754.841L16.236,5a.858.858,0,0,0,.692.309.924.924,0,0,0,.643-.247.814.814,0,0,0,.272-.63.883.883,0,0,0-.3-.655L13.615-.029A1.345,1.345,0,0,0,13.226-.3a1,1,0,0,0-.754,0,1.345,1.345,0,0,0-.389.272L8.151,3.779a.883.883,0,0,0-.3.655.823.823,0,0,0,.266.63.918.918,0,0,0,.649.247A.881.881,0,0,0,9.462,5L11.155,3.21l.766-.853L11.835,4.1V15.98a1.024,1.024,0,0,0,1.014,1Z" transform="translate(-2.354 0.375)" fill="#fff"/>
</svg>
