<svg xmlns="http://www.w3.org/2000/svg" width="18.984" height="18.984" viewBox="0 0 18.984 18.984">
  <path id="Path_6" data-name="Path 6" d="M11.143,22.125a9.111,9.111,0,0,0,3.672-.747,9.822,9.822,0,0,0,3.032-2.051A9.471,9.471,0,0,0,19.9,16.3a9.5,9.5,0,0,0,0-7.339,9.641,9.641,0,0,0-2.046-3.032,9.543,9.543,0,0,0-3.027-2.051,9.215,9.215,0,0,0-3.672-.737.808.808,0,0,0-.605.22.836.836,0,0,0-.215.61V7.457a.806.806,0,0,0,.21.557.694.694,0,0,0,.542.234.665.665,0,0,0,.532-.234.829.829,0,0,0,.2-.557V3.941l-.732.938a7.621,7.621,0,0,1,3.042.586,7.814,7.814,0,0,1,2.485,1.66A7.623,7.623,0,0,1,18.281,9.6a7.716,7.716,0,0,1,.6,3.032,7.678,7.678,0,0,1-2.251,5.474,7.847,7.847,0,0,1-2.461,1.665,7.538,7.538,0,0,1-3.022.605,7.524,7.524,0,0,1-3.008-.605,7.89,7.89,0,0,1-2.471-1.665,7.655,7.655,0,0,1-2.256-5.474A7.73,7.73,0,0,1,5.2,7.691a1.156,1.156,0,0,0,.249-.649.806.806,0,0,0-.249-.61.759.759,0,0,0-.645-.239.973.973,0,0,0-.674.4A9.683,9.683,0,0,0,2.246,9.366a9.016,9.016,0,0,0-.6,3.267A9.121,9.121,0,0,0,2.4,16.3a9.695,9.695,0,0,0,5.073,5.078A9.111,9.111,0,0,0,11.143,22.125Zm1.475-8.115a1.653,1.653,0,0,0,.454-.845,1.456,1.456,0,0,0-.112-.884,1.766,1.766,0,0,0-.645-.732L7.539,8.238a.511.511,0,0,0-.474-.1.468.468,0,0,0-.3.3.511.511,0,0,0,.1.474l3.3,4.775a1.868,1.868,0,0,0,.742.649,1.449,1.449,0,0,0,.879.122A1.569,1.569,0,0,0,12.617,14.01Z" transform="translate(-1.65 -3.141)" fill="#fff"/>
</svg>
