<svg xmlns="http://www.w3.org/2000/svg" width="21.064" height="16.436" viewBox="0 0 21.064 16.436">
  <path id="Path_30" data-name="Path 30" d="M12.91,20.553a1.1,1.1,0,0,0,.8-.317,1.083,1.083,0,0,0,.322-.806V5.3a1.183,1.183,0,0,0-.322-.835,1.071,1.071,0,0,0-.82-.347,1.189,1.189,0,0,0-.615.161,4.327,4.327,0,0,0-.654.5l-3.9,3.652a.3.3,0,0,1-.225.088H4.873a1.979,1.979,0,0,0-1.494.537,2.18,2.18,0,0,0-.518,1.572v3.438a2.177,2.177,0,0,0,.518,1.577,1.99,1.99,0,0,0,1.494.532H7.5a.285.285,0,0,1,.225.088l3.9,3.682a2.586,2.586,0,0,0,.64.464A1.493,1.493,0,0,0,12.91,20.553Zm4.424-4.189a.759.759,0,0,0,.586.127.793.793,0,0,0,.518-.361,5.386,5.386,0,0,0,.854-1.714,7.2,7.2,0,0,0,0-4.165,5.777,5.777,0,0,0-.854-1.738.81.81,0,0,0-.518-.342.759.759,0,0,0-.586.127.794.794,0,0,0-.361.557.96.96,0,0,0,.2.693,4.238,4.238,0,0,1,.605,1.274,5.388,5.388,0,0,1,0,3.013,4.247,4.247,0,0,1-.605,1.27.992.992,0,0,0-.2.7A.794.794,0,0,0,17.334,16.363Zm3.574,2.451a.8.8,0,0,0,.6.112.822.822,0,0,0,.522-.356,9.805,9.805,0,0,0,1.4-2.876,11.422,11.422,0,0,0,.5-3.364,11.625,11.625,0,0,0-.493-3.374,9.3,9.3,0,0,0-1.4-2.866.842.842,0,0,0-.522-.361.764.764,0,0,0-.6.117.708.708,0,0,0-.342.532,1,1,0,0,0,.176.669A8.3,8.3,0,0,1,21.9,9.488a9.9,9.9,0,0,1,.41,2.842,9.744,9.744,0,0,1-.415,2.837,8.7,8.7,0,0,1-1.157,2.446,1,1,0,0,0-.176.669A.708.708,0,0,0,20.908,18.814Z" transform="translate(-2.861 -4.117)" fill="#fff"/>
</svg>
